<svg class="icon" style="width: 1em; height: 1em; vertical-align: middle; fill: currentcolor; overflow: hidden; --darkreader-inline-fill: currentcolor;" viewBox="0 0 1024 1024" version="1.1" xmlns="http://www.w3.org/2000/svg" p-id="10515" data-darkreader-inline-fill=""><path d="M515.84 246.656L378.56 384l-45.248-45.248L416 256h-192a96 96 0 0 0 0 192H256v64h-32a160 160 0 1 1 0-320h192L384 160l-50.752-50.752L378.496 64l137.408 137.344v45.312zM320 416l58.496 58.496L384 468.992V896h512V448h-256V192h-60.16v-17.152L533.056 128H716.8l19.2 6.4 217.6 224 6.4 25.6v544l-32 32h-576l-32-32v-512zM704 192v192h185.792L704 192z" fill="#C5C5C5" p-id="10516" style="--darkreader-inline-fill: #c3beb6;" data-darkreader-inline-fill=""></path></svg>